<svg width="534" height="436" viewBox="0 0 534 436" fill="none" xmlns="http://www.w3.org/2000/svg">
    <path opacity="0.2" d="M209.641 642.282C386.726 642.282 530.282 498.726 530.282 321.641C530.282 144.556 386.726 1 209.641 1C32.5557 1 -111 144.556 -111 321.641C-111 498.726 32.5557 642.282 209.641 642.282Z" fill="url(#paint0_linear_257_1872)"/>
    <path opacity="0.4" d="M210.188 595.225C361.586 595.225 484.32 472.737 484.32 321.641C484.32 170.545 361.586 48.0565 210.188 48.0565C58.7894 48.0565 -63.9435 170.545 -63.9435 321.641C-63.9435 472.737 58.7894 595.225 210.188 595.225Z" fill="url(#paint1_linear_257_1872)"/>
    <path opacity="0.6" d="M209.641 549.263C335.352 549.263 437.263 447.352 437.263 321.641C437.263 195.929 335.352 94.0187 209.641 94.0187C83.9284 94.0187 -17.9813 195.929 -17.9813 321.641C-17.9813 447.352 83.9284 549.263 209.641 549.263Z" fill="url(#paint2_linear_257_1872)"/>
    <path opacity="0.8" d="M209.641 503.301C309.968 503.301 391.301 421.968 391.301 321.641C391.301 221.313 309.968 139.981 209.641 139.981C109.313 139.981 27.9808 221.313 27.9808 321.641C27.9808 421.968 109.313 503.301 209.641 503.301Z" fill="url(#paint3_linear_257_1872)"/>
    <path d="M209.641 456.244C283.979 456.244 344.244 395.979 344.244 321.641C344.244 247.301 283.979 187.037 209.641 187.037C135.301 187.037 75.0374 247.301 75.0374 321.641C75.0374 395.979 135.301 456.244 209.641 456.244Z" fill="url(#paint4_linear_257_1872)"/>
    <path opacity="0.6" d="M-35.4906 198.87C32.0617 63.3896 196.726 8.28194 332.303 75.786C467.881 143.29 523.028 307.837 455.475 443.318C387.923 578.798 223.258 633.906 87.6813 566.402" stroke="url(#paint5_linear_257_1872)" stroke-width="84.567" stroke-miterlimit="10" stroke-linecap="round"/>
    <path opacity="0.6" d="M372.697 402.636C328.044 492.416 219.19 528.932 129.566 484.201C39.942 439.47 3.4886 330.426 48.142 240.646C92.7955 150.866 201.65 114.35 291.274 159.081" stroke="url(#paint6_linear_257_1872)" stroke-width="84.567" stroke-miterlimit="10" stroke-linecap="round"/>
    <path opacity="0.5" d="M209.641 642.282C386.726 642.282 530.282 498.726 530.282 321.641C530.282 144.556 386.726 1 209.641 1C32.5557 1 -111 144.556 -111 321.641C-111 498.726 32.5557 642.282 209.641 642.282Z" stroke="url(#paint7_linear_257_1872)" stroke-width="1.057" stroke-miterlimit="10"/>
    <path opacity="0.625" d="M210.188 595.225C361.586 595.225 484.32 472.492 484.32 321.093C484.32 169.695 361.586 46.9622 210.188 46.9622C58.7892 46.9622 -63.9435 169.695 -63.9435 321.093C-63.9435 472.492 58.7892 595.225 210.188 595.225Z" stroke="url(#paint8_linear_257_1872)" stroke-width="1.057" stroke-miterlimit="10"/>
    <path opacity="0.75" d="M209.641 549.263C335.352 549.263 437.263 447.352 437.263 321.641C437.263 195.928 335.352 94.0187 209.641 94.0187C83.9287 94.0187 -17.9813 195.928 -17.9813 321.641C-17.9813 447.352 83.9287 549.263 209.641 549.263Z" stroke="url(#paint9_linear_257_1872)" stroke-width="1.057" stroke-miterlimit="10"/>
    <path opacity="0.875" d="M210.188 503.301C310.213 503.301 391.301 421.968 391.301 321.641C391.301 221.313 310.213 139.981 210.188 139.981C110.162 139.981 29.0754 221.313 29.0754 321.641C29.0754 421.968 110.162 503.301 210.188 503.301Z" stroke="url(#paint10_linear_257_1872)" stroke-width="1.057" stroke-miterlimit="10"/>
    <path d="M210.188 456.244C284.828 456.244 345.339 395.979 345.339 321.641C345.339 247.301 284.828 187.037 210.188 187.037C135.546 187.037 75.0374 247.301 75.0374 321.641C75.0374 395.979 135.546 456.244 210.188 456.244Z" stroke="url(#paint11_linear_257_1872)" stroke-width="1.057" stroke-miterlimit="10"/>
    <path d="M74.886 335.174C76.7501 335.174 78.2612 333.668 78.2612 331.812C78.2612 329.957 76.7501 328.451 74.886 328.451C73.022 328.451 71.5109 329.957 71.5109 331.812C71.5109 333.668 73.022 335.174 74.886 335.174ZM371.222 406.999C373.085 406.999 374.597 405.493 374.597 403.637C374.597 401.782 373.085 400.276 371.222 400.276C369.359 400.276 367.846 401.782 367.846 403.637C367.846 405.493 369.359 406.999 371.222 406.999ZM-36.4929 203.61C-34.6288 203.61 -33.1178 202.105 -33.1178 200.248C-33.1178 198.391 -34.6288 196.886 -36.4929 196.886C-38.357 196.886 -39.868 198.391 -39.868 200.248C-39.868 202.105 -38.357 203.61 -36.4929 203.61ZM422.861 244.288C424.724 244.288 426.236 242.783 426.236 240.926C426.236 239.069 424.724 237.564 422.861 237.564C420.998 237.564 419.486 239.069 419.486 240.926C419.486 242.783 420.998 244.288 422.861 244.288ZM530.19 318.889C532.053 318.889 533.565 317.384 533.565 315.528C533.565 313.671 532.053 312.166 530.19 312.166C528.327 312.166 526.815 313.671 526.815 315.528C526.815 317.384 528.327 318.889 530.19 318.889Z" fill="white"/>
    <path d="M251.192 334.531C251.617 324.583 248.067 308.332 239.588 295.096C239.365 294.754 238.987 294.893 239.072 295.255C239.649 297.28 239.811 300.945 236.575 300.752C230.845 300.417 236.673 288.139 224.023 279.76C223.77 279.594 223.473 279.821 223.611 280.092C224.488 281.717 225.042 286.815 223.061 288.569C221.475 289.978 218.536 289.626 215.678 285.057C210.914 277.443 212.628 269.247 215.783 264.109C216.019 263.723 215.689 263.574 215.415 263.669C198.16 269.508 194.87 289.876 191.249 297.328C190.642 298.577 190.112 299.231 189.056 299.17C185.905 298.984 188.118 292.261 189.191 289.914C189.343 289.582 188.962 289.406 188.759 289.619C179.929 298.98 171.993 314.855 170.582 329.559C170.626 329.211 170.707 328.876 170.764 328.531C170.586 329.647 170.451 330.777 170.366 331.917V331.924C170.333 332.373 170.309 332.823 170.285 333.27C170.265 333.808 170.245 334.345 170.245 334.89C170.245 357.187 188.368 375.263 210.722 375.263C233.079 375.263 251.199 357.187 251.199 334.89C251.202 334.772 251.192 334.653 251.192 334.531ZM210.722 353.622C200.353 353.622 191.948 345.234 191.948 334.897C191.948 324.553 200.353 316.169 210.722 316.169C221.091 316.169 229.496 324.556 229.496 334.897C229.499 345.234 221.094 353.622 210.722 353.622Z" fill="#EB4E27"/>
    <defs>
        <linearGradient id="paint0_linear_257_1872" x1="-103.841" y1="8.15873" x2="495.68" y2="607.68" gradientUnits="userSpaceOnUse">
            <stop offset="0.004" stop-color="#F1A391"/>
            <stop offset="1" stop-color="#ED714E"/>
        </linearGradient>
        <linearGradient id="paint1_linear_257_1872" x1="-45.3319" y1="66.631" x2="457.887" y2="570.855" gradientUnits="userSpaceOnUse">
            <stop offset="0.004" stop-color="#F1A391"/>
            <stop offset="1" stop-color="#ED714E"/>
        </linearGradient>
        <linearGradient id="paint2_linear_257_1872" x1="7.84419" y1="119.844" x2="419.6" y2="531.6" gradientUnits="userSpaceOnUse">
            <stop offset="0.004" stop-color="#F1A391"/>
            <stop offset="1" stop-color="#ED714E"/>
        </linearGradient>
        <linearGradient id="paint3_linear_257_1872" x1="56.8693" y1="168.869" x2="379.959" y2="491.958" gradientUnits="userSpaceOnUse">
            <stop offset="0.004" stop-color="#F1A391"/>
            <stop offset="1" stop-color="#ED714E"/>
        </linearGradient>
        <linearGradient id="paint4_linear_257_1872" x1="102.576" y1="214.576" x2="337.882" y2="449.88" gradientUnits="userSpaceOnUse">
            <stop offset="0.004" stop-color="#F1A391"/>
            <stop offset="1" stop-color="#ED714E"/>
        </linearGradient>
        <linearGradient id="paint5_linear_257_1872" x1="224.413" y1="46.9622" x2="224.413" y2="595.225" gradientUnits="userSpaceOnUse">
            <stop stop-color="#F1A391"/>
            <stop offset="1" stop-color="#F1A391" stop-opacity="0"/>
        </linearGradient>
        <linearGradient id="paint6_linear_257_1872" x1="372.711" y1="410.448" x2="298.602" y2="156.247" gradientUnits="userSpaceOnUse">
            <stop stop-color="#F1A391"/>
            <stop offset="1" stop-color="#F1A391" stop-opacity="0"/>
        </linearGradient>
        <linearGradient id="paint7_linear_257_1872" x1="-110.831" y1="321.472" x2="530.451" y2="321.472" gradientUnits="userSpaceOnUse">
            <stop stop-color="white"/>
            <stop offset="1" stop-color="#FFC0B6"/>
        </linearGradient>
        <linearGradient id="paint8_linear_257_1872" x1="-63.9435" y1="320.925" x2="484.32" y2="320.925" gradientUnits="userSpaceOnUse">
            <stop stop-color="white"/>
            <stop offset="1" stop-color="#FFC0B6"/>
        </linearGradient>
        <linearGradient id="paint9_linear_257_1872" x1="-17.8127" y1="321.472" x2="437.432" y2="321.472" gradientUnits="userSpaceOnUse">
            <stop stop-color="white"/>
            <stop offset="1" stop-color="#FFC0B6"/>
        </linearGradient>
        <linearGradient id="paint10_linear_257_1872" x1="29.0754" y1="321.472" x2="391.301" y2="321.472" gradientUnits="userSpaceOnUse">
            <stop stop-color="white"/>
            <stop offset="1" stop-color="#FFC0B6"/>
        </linearGradient>
        <linearGradient id="paint11_linear_257_1872" x1="75.2063" y1="321.472" x2="345.508" y2="321.472" gradientUnits="userSpaceOnUse">
            <stop stop-color="white"/>
            <stop offset="1" stop-color="#FFC0B6"/>
        </linearGradient>
    </defs>
</svg>
