<svg width="121" height="40" viewBox="0 0 121 40" fill="none" xmlns="http://www.w3.org/2000/svg">
<path d="M34.8046 32.1691V14.8009C34.8046 14.7438 34.8618 14.6295 34.976 14.6295H38.2897C38.404 14.6295 38.4611 14.6866 38.4611 14.8009V21.0855H38.5182C39.3752 20 40.7464 19.4858 42.1747 19.4858C44.8028 19.4858 45.6598 21.1997 45.6598 23.485V32.2263C45.6598 32.2834 45.6026 32.3977 45.4884 32.3977H42.1747C42.0604 32.3977 42.0033 32.3405 42.0033 32.2263V23.8278C42.0033 22.8566 40.9749 22.5138 40.2893 22.5138C39.6037 22.5138 38.404 22.9708 38.404 24.1706V32.2263C38.404 32.2834 38.3468 32.3977 38.2326 32.3977H34.9189C34.9189 32.3405 34.8046 32.2834 34.8046 32.1691ZM47.2023 25.9989C47.2023 21.9996 48.7449 19.4286 53.2012 19.4286C57.6576 19.4286 59.2573 21.9996 59.2573 25.9989C59.2573 30.0553 57.7147 32.5691 53.2012 32.5691C48.8021 32.5691 47.2023 30.0553 47.2023 25.9989ZM51.2016 25.9989C51.2016 28.1699 51.5444 29.4839 53.2584 29.4839C55.0295 29.4839 55.3723 28.1699 55.3723 25.9989C55.3723 23.8278 55.0295 22.5138 53.2584 22.5138C51.4873 22.5138 51.2016 23.8278 51.2016 25.9989ZM61.4283 28.7412V22.7423H59.8857C59.7715 22.7423 59.7143 22.6852 59.7143 22.5709V20.3999C59.7143 20.3428 59.7715 20.2856 59.8286 20.2285C59.8857 20.2285 61.8854 19.6572 61.8854 19.6572C61.8854 19.6572 62.9709 16.2864 62.9709 16.2292C62.9709 16.1721 63.028 16.115 63.1423 16.115H64.9134C64.9705 16.115 65.0848 16.1721 65.0848 16.2864V19.6572H67.77C67.8271 19.6572 67.9414 19.7143 67.9414 19.8286V22.5709C67.9414 22.6852 67.8843 22.7423 67.77 22.7423H65.0848V28.3413C65.0848 28.9126 65.4276 29.2554 66.2274 29.2554H67.77C67.8843 29.2554 67.9414 29.3697 67.9414 29.4268V31.8264C67.9414 31.9406 67.8843 31.9406 67.8271 31.9978C66.8559 32.3405 66.3417 32.5691 65.2562 32.5691C62.5709 32.5691 61.4283 30.9694 61.4283 28.7412ZM70.1696 32.1691V19.8286C70.1696 19.7143 70.2267 19.6572 70.3409 19.6572H73.369C73.4261 19.6572 73.4832 19.7143 73.5404 19.7714C73.5975 19.8286 73.8832 21.0283 73.8832 21.0283H73.9403C74.7973 19.9428 76.1113 19.4286 77.5968 19.4286C79.3679 19.4286 80.282 20.2285 80.739 21.4854H80.8533C81.7674 19.9428 83.3671 19.4286 84.7954 19.4286C87.4235 19.4286 88.2805 21.1426 88.2805 23.4279V32.1691C88.2805 32.2834 88.2234 32.3405 88.1091 32.3405H84.7383C84.624 32.3405 84.5669 32.2263 84.5669 32.1691V23.8278C84.5669 22.8566 83.6528 22.4566 82.9672 22.4566C82.2245 22.4566 81.0818 22.9137 81.0247 24.0564V32.1691C81.0247 32.2263 80.9676 32.3405 80.8533 32.3405H77.4825C77.3682 32.3405 77.3111 32.2834 77.3111 32.1691V23.8278C77.3111 22.8566 76.3398 22.4566 75.5971 22.4566C74.9687 22.4566 73.7689 22.9708 73.7689 24.2278V32.2263C73.7689 32.2834 73.7118 32.3977 73.5975 32.3977H70.2838C70.2267 32.3405 70.1696 32.2263 70.1696 32.1691ZM90.3944 22.4566V20.1714C90.3944 20.1142 90.4515 20.0571 90.5087 20C92.2798 19.6572 93.8795 19.4286 95.3649 19.4286C98.6215 19.4286 100.507 20.2285 100.507 23.7136V32.1691C100.507 32.2834 100.45 32.3405 100.335 32.3405H97.136C97.0789 32.3405 97.0218 32.2834 96.9646 32.2263C96.9646 32.1691 96.6218 30.9694 96.6218 30.9694H96.7932C95.8791 32.2263 94.6793 32.5691 93.1939 32.5691C90.7943 32.5691 89.5374 30.7408 89.5374 28.5698C89.5374 25.3133 91.937 24.6277 93.7081 24.6277H96.7932V23.7707C96.7932 22.7423 96.0505 22.5138 93.0796 22.5138C91.8227 22.5138 90.5087 22.628 90.4515 22.628C90.5087 22.628 90.3944 22.5709 90.3944 22.4566ZM96.9075 26.8558H94.9079C93.8223 26.8558 93.1368 27.2558 93.1368 28.3984C93.1368 29.5982 93.9937 29.8839 94.8507 29.8839C95.6506 29.8839 96.9075 29.4268 96.9075 27.8271V26.8558ZM102.678 32.1691V19.8286C102.678 19.7143 102.735 19.6572 102.849 19.6572H105.82C105.877 19.6572 105.934 19.7143 105.992 19.7714C105.992 19.8286 106.334 21.7139 106.334 21.7139H106.391C107.191 20.0571 108.848 19.4858 110.276 19.4286C110.334 19.4286 110.448 19.4858 110.448 19.6V23.028C110.448 23.1422 110.391 23.1994 110.276 23.1994H109.419C107.134 23.1994 106.334 24.1135 106.334 25.2561V32.1691C106.334 32.2834 106.22 32.3405 106.163 32.3405H102.849C102.735 32.3405 102.678 32.2834 102.678 32.1691ZM113.704 28.7412V22.7423H112.162C112.048 22.7423 111.99 22.6852 111.99 22.5709V20.3999C111.99 20.3428 112.048 20.2856 112.105 20.2285C112.162 20.2285 114.161 19.6572 114.161 19.6572C114.161 19.6572 115.247 16.2864 115.247 16.2292C115.247 16.1721 115.304 16.115 115.418 16.115H117.189C117.247 16.115 117.361 16.1721 117.361 16.2864V19.6572H120.046C120.103 19.6572 120.217 19.7143 120.217 19.8286V22.5709C120.217 22.6852 120.16 22.7423 120.046 22.7423H117.361V28.3413C117.361 28.9126 117.704 29.2554 118.504 29.2554H120.046C120.16 29.2554 120.217 29.3697 120.217 29.4268V31.8264C120.217 31.9406 120.16 31.9406 120.103 31.9978C119.132 32.3405 118.618 32.5691 117.532 32.5691C114.79 32.5691 113.704 30.9694 113.704 28.7412Z" fill="#053D4E"/>
<path d="M27.9487 24.7419C28.1201 21.314 26.9203 15.6579 24.0637 11.0873C24.0066 10.973 23.8352 11.0302 23.8923 11.1444C24.0637 11.83 24.1209 13.0869 23.0353 13.0298C21.0357 12.9155 23.0925 8.68774 18.7504 5.71686C18.6362 5.65972 18.579 5.71686 18.6362 5.83112C18.9218 6.40244 19.0932 8.17355 18.4076 8.74487C17.8363 9.20193 16.8651 9.08767 15.8938 7.48796C14.237 4.917 14.8654 2.11752 15.9509 0.346415C16.0652 0.175018 15.9509 0.175018 15.8367 0.175018C9.89491 2.17465 8.69513 9.20193 7.43822 11.7158C7.20969 12.1728 7.03829 12.3442 6.6955 12.3442C5.60998 12.2871 6.40983 9.94465 6.75263 9.1448C6.80976 9.03053 6.6955 8.9734 6.58123 9.03053C3.49608 12.2871 0.753731 17.7718 0.182407 22.7994C0.182407 22.6852 0.125275 23.1994 0.125275 23.5993C0.125275 23.7707 0.125275 23.8849 0.0681426 24.0563V24.6277C0.0110102 32.3405 6.1813 38.6822 13.8942 38.7394C21.607 38.7965 27.8916 32.6262 27.9487 24.9133V24.7419ZM13.9513 31.255C10.352 31.1979 7.49535 28.2841 7.55248 24.7419C7.60961 21.1997 10.5234 18.286 14.0656 18.3431C17.6078 18.4002 20.5215 21.314 20.4644 24.8562C20.4644 28.3984 17.5506 31.255 13.9513 31.255Z" fill="#EF4E23"/>
</svg>
